<?xml version="1.0" encoding="UTF-8"?>
<!DOCTYPE svg  PUBLIC '-//W3C//DTD SVG 1.1//EN'  'http://www.w3.org/Graphics/SVG/1.1/DTD/svg11.dtd' [
	<!ENTITY ns_flows "http://ns.adobe.com/Flows/1.0/">
]>
<svg width="160px" height="53px" enable-background="new -4.3 -5.3 160 53" version="1.1" viewBox="-4.3 -5.3 160 53" xml:space="preserve" xmlns="http://www.w3.org/2000/svg">

<g enable-background="new    ">
	<path d="m24.2 2v1.9h-8.2v27.3c0 0.7-0.2 1.2-0.5 1.4s-0.7 0.3-1.2 0.3h-5.7v-29h-8.6v-1.9h24.2z"/>
	<path d="m69.8 33h-2.3l-2.9-9h-11.2l-2.2 7.2c-0.2 0.7-0.5 1.2-0.7 1.4s-0.6 0.4-1 0.4h-5.7l8.5-26.8c0.1-0.3 0.1-0.5 0.1-0.8s-0.2-0.4-0.2-0.6l-0.3-0.6c-0.1-0.2-0.3-0.4-0.3-0.6-0.3-0.5-0.5-1-0.5-1.3-0.1-0.2 0.1-0.3 0.5-0.3h7.2c0.5 0 0.8 0.1 1 0.4 0.2 0.2 0.5 0.7 0.7 1.4l9.3 29.2zm-15.8-10.9h10l-5.1-15.9-4.9 15.9z"/>
	<path d="m113.6 11.6c0 1.3-0.2 2.4-0.7 3.4s-1.2 1.9-2.1 2.6-2 1.3-3.3 1.7-2.8 0.6-4.4 0.6h-5.1v11.2c0 0.7-0.2 1.2-0.5 1.4s-0.8 0.5-1.2 0.5h-5.7v-26.8c0-0.6-0.1-1.1-0.2-1.4s-0.4-0.7-0.6-1.1c-0.3-0.5-0.5-1-0.5-1.3s0.2-0.4 0.7-0.4h13.2c1.6 0 3.1 0.2 4.4 0.7 1.3 0.4 2.4 1 3.3 1.8s1.6 1.7 2.1 2.8 0.7 2.2 0.7 3.5v0.8zm-15.6 6.5h3.8c0.5 0 1.1-0.1 1.7-0.4 0.6-0.2 1.1-0.6 1.5-1.2 0.4-0.5 0.8-1.2 1.1-2.1s0.4-1.9 0.4-3.1v-0.3c0-1.2-0.1-2.3-0.4-3.2s-0.6-1.6-1-2.2-0.9-1-1.5-1.3-1.1-0.4-1.8-0.4h-3.8v14.2z"/>
</g>

<g enable-background="new    ">
	<path d="m122.2 3.6c0-0.5 0.1-0.9 0.4-1.1s0.6-0.2 0.9-0.2h3.5c0.3 0 0.5 0.1 0.5 0.3s-0.1 0.5-0.4 0.9c-0.2 0.3-0.2 0.6-0.3 0.8 0 0.2 0 0.6-0.1 1.1l-0.3 4.5h-2.8c-0.3 0-0.6-0.1-0.9-0.2-0.3-0.2-0.4-0.5-0.4-1.1l-0.1-5z"/>
	<path d="m149.2 14.4c0.1 0.4 0.1 0.7 0 0.9s-0.2 0.4-0.4 0.6l-0.6 0.3c-0.2 0-0.5 0.1-0.7 0.1h-5.3v-0.4c0-1.3-0.1-2.3-0.3-3s-0.4-1.2-0.7-1.5-0.5-0.5-0.8-0.6c-0.3 0-0.5-0.1-0.8-0.1s-0.5 0-0.8 0.1-0.6 0.2-0.8 0.6c-0.3 0.3-0.5 0.8-0.7 1.5s-0.3 1.6-0.3 2.7v0.1 1.1c0 0.5 0.1 0.9 0.2 1.4s0.3 0.8 0.6 1.2c0.3 0.3 0.7 0.5 1.2 0.5h2c1.4 0 2.7 0.2 3.9 0.5 1.1 0.3 2.1 0.8 2.9 1.4s1.4 1.3 1.8 2c0.4 0.8 0.6 1.6 0.6 2.4v0.6c0 1.4-0.3 2.5-1 3.4-0.6 0.9-1.5 1.5-2.5 2s-2.2 0.8-3.5 1-2.6 0.3-3.8 0.3c-1.3 0-2.6-0.1-3.8-0.3-1.3-0.2-2.4-0.6-3.5-1.1-1-0.5-1.9-1.2-2.5-2-0.6-0.9-1-1.9-1-3.2v-0.4h7.2v0.4c0 1.3 0.1 2.3 0.4 3s0.6 1.2 1 1.5 0.8 0.5 1.2 0.5 0.7 0.1 1 0.1 0.6 0 1-0.1c0.4 0 0.8-0.2 1.2-0.5s0.7-0.8 1-1.5 0.4-1.7 0.4-3v-0.9c0-0.9-0.1-1.6-0.3-2.2s-0.5-1.1-0.8-1.4-0.7-0.7-1.2-0.8c-0.5-0.2-0.9-0.3-1.4-0.3h-0.9-0.9c-1.7 0-3.1-0.2-4.2-0.6-1-0.4-1.8-0.8-2.4-1.4-0.5-0.6-0.9-1.2-1.1-1.9s-0.2-1.4-0.2-2.1c0-1 0.3-1.9 0.8-2.7s1.2-1.5 2.1-2c0.9-0.6 1.9-1 3.1-1.3s2.4-0.4 3.7-0.4c1.1 0 2.2 0.1 3.3 0.4 1.1 0.2 2 0.6 2.9 1.1s1.6 1 2.2 1.7c1 0.6 1.3 1.4 1.5 2.3z"/>
</g>
<g enable-background="new    ">
	<path d="m23.7 32.8h-1.6v-0.6c0 0.1-0.1 0.1-0.2 0.2s-0.2 0.1-0.4 0.2c-0.1 0.1-0.3 0.1-0.5 0.2-0.2 0-0.4 0.1-0.6 0.1-1 0-1.8-0.2-2.4-0.6-0.6-0.5-0.8-1.2-0.8-2.1v-2.1c0-0.9 0.3-1.6 0.8-2.1 0.6-0.5 1.3-0.7 2.4-0.6 0.2 0 0.4 0 0.6 0.1s0.3 0.1 0.5 0.2c0.1 0.1 0.3 0.1 0.4 0.2 0.1 0 0.1 0.1 0.2 0.1 0-0.2 0-0.3 0.1-0.3 0.1-0.1 0.2-0.1 0.3-0.1h1.4c0.1 0 0.2 0 0.2 0.1s-0.1 0.2-0.2 0.4c-0.1 0.1-0.1 0.2-0.2 0.3s-0.1 0.2-0.1 0.4v6zm-2.1-4.9c0-0.5 0-0.8-0.1-1.1s-0.1-0.5-0.3-0.6-0.2-0.2-0.3-0.2-0.3-0.1-0.4-0.1-0.3 0-0.4 0.1c-0.1 0-0.3 0.1-0.4 0.3s-0.2 0.3-0.3 0.6-0.1 0.6-0.1 1.1v2.5c0 0.5 0 0.8 0.1 1.1s0.2 0.5 0.3 0.6 0.2 0.2 0.4 0.3 0.3 0.1 0.4 0.1 0.3 0 0.4-0.1 0.3-0.1 0.4-0.3c0.1-0.1 0.2-0.3 0.2-0.6 0.1-0.3 0.1-0.6 0.1-1.1v-2.6z"/>
	<path d="m25.7 32.8v-8.4c0-0.2 0-0.3-0.1-0.4s-0.1-0.2-0.2-0.3c-0.1-0.2-0.1-0.3-0.2-0.4 0-0.1 0.1-0.1 0.2-0.1h1.7c0.1 0 0.3 0 0.4 0.1s0.2 0.2 0.2 0.4v8.6c0 0.2-0.1 0.4-0.2 0.4s-0.2 0.1-0.4 0.1h-1.4z"/>
	<path d="m33.8 32.8-2.2-3.3-0.3 0.3v2.5c0 0.2-0.1 0.4-0.2 0.4s-0.2 0.1-0.4 0.1h-1.5v-8.4c0-0.2 0-0.3-0.1-0.4s-0.1-0.2-0.2-0.3c-0.1-0.2-0.1-0.3-0.2-0.4 0-0.1 0.1-0.1 0.2-0.1h1.7c0.1 0 0.3 0 0.4 0.1s0.2 0.2 0.2 0.4v5.1l3-3.2h0.9l-2.2 2.4 2.7 4.1c0.1 0.2 0.1 0.3 0 0.5-0.1 0.1-0.2 0.2-0.4 0.2h-1.4z"/>
</g>
<g enable-background="new    ">
	<path d="m76.8 32.8h-2v-4.7c0-0.5 0-0.8-0.1-1.1s-0.1-0.5-0.2-0.6l-0.3-0.3c-0.1 0-0.3-0.1-0.4-0.1-0.2 0-0.4 0-0.5 0.1-0.2 0.1-0.3 0.2-0.5 0.5v5.5c0 0.2-0.1 0.4-0.2 0.4s-0.2 0.1-0.4 0.1h-1.4v-5.9c0-0.2 0-0.3-0.1-0.4s-0.1-0.2-0.2-0.3c-0.1-0.2-0.1-0.3-0.2-0.4 0-0.1 0.1-0.1 0.2-0.1h1.6c0.1 0 0.2 0 0.3 0.1 0.1 0 0.2 0.1 0.2 0.2 0.1-0.1 0.3-0.1 0.5-0.2s0.4-0.1 0.5-0.1c0.5 0 0.9 0 1.3 0.1s0.7 0.3 1 0.5 0.5 0.6 0.6 0.9c0.1 0.4 0.2 0.8 0.2 1.3v4.5z"/>
	<path d="m84.3 32.8h-1.5v-0.6c0 0.1-0.1 0.1-0.2 0.2s-0.2 0.1-0.4 0.2c-0.1 0.1-0.3 0.1-0.5 0.2-0.2 0-0.4 0.1-0.6 0.1-1 0-1.8-0.2-2.4-0.6-0.6-0.5-0.9-1.2-0.9-2.1v-1.3c0-0.5 0.1-0.9 0.2-1.2 0.1-0.4 0.4-0.7 0.6-0.9 0.3-0.2 0.6-0.4 1-0.5s0.9-0.1 1.4-0.1h0.3c0.1 0 0.2 0 0.3 0.1 0.1 0 0.2 0.1 0.3 0.1s0.1 0.1 0.2 0.1v-2.2c0-0.2 0-0.3-0.1-0.4s-0.1-0.2-0.2-0.3c-0.1-0.2-0.1-0.3-0.2-0.4 0-0.1 0.1-0.1 0.2-0.1h1.7c0.1 0 0.3 0 0.4 0.1s0.2 0.2 0.2 0.4v9.2zm-2.1-4.1c0-0.5 0-0.8-0.1-1.1s-0.1-0.5-0.3-0.6c-0.1-0.1-0.2-0.2-0.4-0.3-0.1 0-0.3-0.1-0.4-0.1s-0.3 0-0.4 0.1c-0.1 0-0.3 0.1-0.4 0.3-0.1 0.1-0.2 0.3-0.3 0.6s-0.1 0.6-0.1 1.1v1.7c0 0.5 0 0.8 0.1 1.1s0.2 0.5 0.3 0.6 0.2 0.2 0.4 0.3c0.1 0 0.3 0.1 0.4 0.1s0.3 0 0.4-0.1 0.3-0.1 0.4-0.3 0.2-0.3 0.2-0.6c0.1-0.3 0.1-0.6 0.1-1.1v-1.7z"/>
</g>
<g enable-background="new    ">
	<path d="m99.4 32.8v-8.4c0-0.2 0-0.3-0.1-0.4s-0.1-0.2-0.2-0.3c-0.1-0.3-0.1-0.4-0.1-0.5s0.1-0.1 0.2-0.1h1.7c0.1 0 0.3 0 0.4 0.1s0.2 0.2 0.2 0.4v8.6c0 0.2-0.1 0.4-0.2 0.4-0.1 0.1-0.2 0.1-0.4 0.1h-1.5z"/>
	<path d="m109 32.8h-1.6v-0.6c0 0.1-0.1 0.1-0.2 0.2s-0.2 0.1-0.4 0.2c-0.1 0.1-0.3 0.1-0.5 0.2-0.2 0-0.4 0.1-0.6 0.1-1 0-1.8-0.2-2.4-0.6s-0.8-1.2-0.8-2.1v-2.1c0-0.9 0.3-1.6 0.8-2.1 0.6-0.5 1.3-0.7 2.4-0.6 0.2 0 0.4 0 0.6 0.1s0.3 0.1 0.5 0.2c0.1 0.1 0.3 0.1 0.4 0.2s0.2 0.1 0.2 0.2v-0.1c0-0.2 0-0.3 0.1-0.3 0.1-0.1 0.2-0.1 0.3-0.1h1.4c0.1 0 0.2 0 0.2 0.1s-0.1 0.2-0.2 0.4c-0.1 0.1-0.1 0.2-0.2 0.3s-0.1 0.2-0.1 0.4v6zm-2.1-4.9c0-0.5 0-0.8-0.1-1.1s-0.1-0.5-0.3-0.6c-0.1-0.1-0.2-0.2-0.4-0.3s-0.3-0.1-0.4-0.1-0.3 0-0.4 0.1c-0.1 0-0.3 0.1-0.4 0.3s-0.2 0.3-0.3 0.6-0.1 0.6-0.1 1.1v2.5c0 0.5 0 0.8 0.1 1.1s0.2 0.5 0.3 0.6 0.2 0.2 0.4 0.3 0.3 0.1 0.4 0.1 0.3 0 0.4-0.1 0.3-0.1 0.4-0.3 0.2-0.3 0.2-0.6c0.1-0.3 0.1-0.6 0.1-1.1v-2.5z"/>
	<path d="m117 25.5-3.7 9.5c-0.1 0.2-0.2 0.3-0.2 0.4-0.1 0.1-0.2 0.1-0.3 0.1h-1.4c-0.1 0-0.2-0.1-0.3-0.2 0-0.1 0-0.2 0.1-0.4 0.1-0.1 0.2-0.2 0.2-0.3 0.1-0.1 0.1-0.2 0.2-0.4l1-2.8-2.3-6.1h0.8l1.9 5.1 1.7-4.6 0.2-0.4c0.1-0.1 0.2-0.1 0.3-0.1h1.8z"/>
</g>
</svg>
